PathFileType	4	(X/Y/Z)	C:\Users\u0145647\OneDrive - KU Leuven\KU Leuven\c3d2osim\CP4\T0\Data\Processed\ViconC3D_CP4_2\CP4_T0_12_gapFilled.trc
DataRate	CameraRate	NumFrames	NumMarkers	Units	OrigDataRate	OrigDataStartFrame	OrigNumFrames
100.000000	100.000000	10	47	mm	100.000000	323	516
Frame#	Time	C7			T10			CLAV			STRN			LSHO			RSHO			RBAK			LASI			RASI			LPSI			RPSI			LLAT			RLAT			LF1			LF2			LF3			LTHI			LKNE			LMEK			RF1			RF2			RF3			RTHI			RKNE			RMEK			LT1			LT2			LT3			LTIB			LANK			LMM			RT1			RT2			RT3			RTIB			RANK			RMM			LHEE			LSTL			LLCA			LTOE			LCM5			RHEE			RSTL			RLCA			RTOE			RCM5
		X1	Y1	Z1	X2	Y2	Z2	X3	Y3	Z3	X4	Y4	Z4	X5	Y5	Z5	X6	Y6	Z6	X7	Y7	Z7	X8	Y8	Z8	X9	Y9	Z9	X10	Y10	Z10	X11	Y11	Z11	X12	Y12	Z12	X13	Y13	Z13	X14	Y14	Z14	X15	Y15	Z15	X16	Y16	Z16	X17	Y17	Z17	X18	Y18	Z18	X19	Y19	Z19	X20	Y20	Z20	X21	Y21	Z21	X22	Y22	Z22	X23	Y23	Z23	X24	Y24	Z24	X25	Y25	Z25	X26	Y26	Z26	X27	Y27	Z27	X28	Y28	Z28	X29	Y29	Z29	X30	Y30	Z30	X31	Y31	Z31	X32	Y32	Z32	X33	Y33	Z33	X34	Y34	Z34	X35	Y35	Z35	X36	Y36	Z36	X37	Y37	Z37	X38	Y38	Z38	X39	Y39	Z39	X40	Y40	Z40	X41	Y41	Z41	X42	Y42	Z42	X43	Y43	Z43	X44	Y44	Z44	X45	Y45	Z45	X46	Y46	Z46	X47	Y47	Z47

323	3.22	NaN	NaN	NaN	-1550.7	1113.4	-162.39	-1687.2	1290.2	-222.54	-1723.8	1145.4	-216.68	-1678.2	1354.1	-6.449	-1574.2	1308.5	-396.72	-1511.1	1279.8	-304.29	-1768.3	868.72	-117.8	-1717.3	881.45	-315.99	-1584.1	887.88	-141.89	-1558.2	891.99	-213.64	-1712.9	932.6	-53.442	-1628.3	935.77	-341.48	-1703.4	592.45	-69.784	NaN	NaN	NaN	-1673.6	593.99	-52.603	NaN	NaN	NaN	-1622.2	394.35	-98.058	NaN	NaN	NaN	-1749.2	617.22	-354.7	-1748.6	642.89	-365.29	-1692.6	621.79	-345.6	-1763.4	543.36	-387.59	-1848.2	451.13	-316.92	NaN	NaN	NaN	-1467.5	293.13	-59.718	NaN	NaN	NaN	-1494.4	330.37	-61.19	-1462.7	204.98	-46.802	-1284	134.96	-70.377	-1289.1	142.29	-159.17	-1858.5	299.91	-324.74	-1875.1	347.81	-315.59	-1823.7	340.49	-325	-1885.6	231.26	-365.16	-1907.6	59.825	-302.04	-1916.9	81.257	-218.12	-1229.9	157.27	-108.55	-1268.5	118.5	-153.3	-1268.5	111.23	-75.293	-1352.9	37.312	-138.01	-1344.3	30.961	-89.038	-1855.1	48.015	-261.11	-1919.5	47.124	-220.24	-1917.6	36.294	-297.48	-2039.3	48.348	-263.28	-2021	28.315	-311.67
324	3.23	NaN	NaN	NaN	-1569.5	1110.5	-165.17	-1703.3	1289	-224.85	-1741.8	1144.7	-218.87	-1692.7	1352.4	-8.517	-1590.8	1305.7	-399.67	-1529.1	1273.7	-307.98	-1786.1	865.61	-120.38	-1735.7	878.6	-319.2	-1602.2	887.41	-144.55	-1578.1	891.69	-216.1	-1731.5	930.38	-55.772	-1648.4	933.59	-345.68	-1718.8	590.22	-71.081	NaN	NaN	NaN	-1688.2	591.9	-54.465	NaN	NaN	NaN	-1637.3	392.35	-97.585	NaN	NaN	NaN	-1766.3	616.2	-355.01	-1764.3	638.38	-366.8	-1710	619.8	-344.72	-1773.4	534.41	-381.25	-1869.1	453.24	-315.63	NaN	NaN	NaN	-1480.2	295.7	-59.41	NaN	NaN	NaN	-1507.7	331.66	-61.108	-1473.1	208.58	-44.432	-1293.7	141.06	-70.448	-1300.1	146.73	-158.84	-1875.1	304.72	-324.53	-1893.9	351.45	-312.98	-1842	345.89	-322.94	-1898.6	236.1	-365.18	-1910.3	59.992	-301	-1917.2	81.119	-216.83	-1241.6	165.38	-108.87	-1278.8	124.61	-153	-1277.6	117.32	-75.099	-1355.4	37.266	-138.19	-1346.6	31.602	-89.172	-1857.4	49.689	-260.68	-1920	46.369	-218.93	-1919.6	35.865	-296.54	-2040.2	45.889	-259.4	-2022.5	26.692	-309.15
325	3.24	NaN	NaN	NaN	NaN	NaN	NaN	-1719.5	1288.8	-227.09	-1759.6	1144.5	-220.97	-1707.1	1351.4	-10.381	-1607.7	1303.5	-402.79	-1545.1	1271.2	-311.26	-1803.3	863.05	-123.16	-1753.3	876.57	-322.41	-1619.4	886.86	-147.48	-1597.2	892.56	-218.76	-1750.3	928.11	-58.312	-1667.5	932.16	-349.65	-1734.5	588.56	-72.246	NaN	NaN	NaN	-1703.8	590.77	-55.748	NaN	NaN	NaN	-1652.3	390.36	-97.112	NaN	NaN	NaN	-1783.4	615.18	-355.31	-1781.8	638.86	-366.87	-1726.9	621.34	-344.57	-1790	537.7	-380.85	-1891.8	458.41	-312.84	NaN	NaN	NaN	-1494	298.06	-59.451	NaN	NaN	NaN	-1524.8	331.11	-61.852	-1484.7	211.98	-41.843	-1304.1	146.98	-69.935	-1313.3	150.74	-158.12	-1892.4	309.84	-324.16	-1911.7	355.28	-309.95	-1860.1	351.96	-324.52	-1918.8	240.15	-363.08	-1912	60.425	-300.59	-1919.2	81.492	-216.32	-1255.3	173.07	-109.02	-1290.9	130.09	-152.26	-1288.3	123.71	-75.071	-1358.5	36.996	-138.29	-1349.7	32.184	-89.209	-1858.9	50.7	-261.5	-1921.2	45.963	-218.48	-1921.3	36.296	-296.25	-2040.8	43.42	-258.59	-2023.8	25.284	-309.79
326	3.25	NaN	NaN	NaN	NaN	NaN	NaN	-1735.7	1288.9	-229.33	-1777.3	1144.9	-222.94	-1721.3	1350.8	-12.183	-1624.2	1301.7	-405.63	-1561	1269.4	-314.38	-1820.1	861.32	-126.04	-1770.8	876.06	-325.42	-1636.5	887.29	-149.78	-1616.7	892.85	-220.41	-1768.9	926.32	-61.108	-1685	931.18	-352.39	-1750.5	587.55	-73.305	NaN	NaN	NaN	-1719	588.69	-57.878	NaN	NaN	NaN	-1669.9	389.33	-96.798	NaN	NaN	NaN	-1800.5	614.16	-355.62	-1801.8	642.76	-365.15	-1744.9	624.01	-346.9	-1816.8	544.71	-384.19	-1912.4	462	-309.96	NaN	NaN	NaN	-1510	300.92	-59.031	NaN	NaN	NaN	-1538.8	335.66	-60.92	-1498.4	215.34	-39.444	-1322.8	148.88	-66.532	-1328	154.24	-156.86	-1907.4	311.96	-323.47	-1927.7	356.99	-307.92	-1878.3	355.79	-326.02	-1932.3	241.72	-361.81	-1915	60.65	-300.47	-1921.7	81.093	-216.03	-1271.2	179.75	-107.86	-1304.6	134.94	-151.33	-1302.4	128.68	-73.678	-1362.2	36.54	-138.39	-1354	32.582	-89.326	-1861.4	52.319	-261.87	-1922.9	45.231	-218.21	-1923.2	36.013	-296.25	-2043.7	39.89	-259.86	-2024.9	22.898	-313.42
327	3.26	NaN	NaN	NaN	NaN	NaN	NaN	-1751.9	1289.3	-231.51	-1794.7	1145.5	-224.9	-1735.6	1350.9	-14.145	-1640.2	1300.4	-408.25	NaN	NaN	NaN	-1836.4	860.16	-128.76	-1788.2	876.36	-328.38	-1651.7	887.95	-151.62	-1632.9	893.71	-222.36	-1787.1	924.98	-63.926	-1702.3	931.65	-354.6	-1767	587.02	-74.447	NaN	NaN	NaN	-1735.2	588	-59.207	NaN	NaN	NaN	-1688.8	389.11	-96.356	NaN	NaN	NaN	-1817.6	613.14	-355.92	-1821.6	647.35	-363.73	-1764.6	626.03	-350.64	-1843.8	550.97	-387.43	-1930.1	462.3	-308.12	NaN	NaN	NaN	-1527.5	303.14	-58.887	NaN	NaN	NaN	-1559.9	335.46	-60.647	-1515.1	218.71	-37.04	-1335	154.62	-67.621	-1344	156.49	-155.28	-1920.4	311.17	-322.14	-1942.1	355.63	-306.64	-1893.8	355.71	-325.62	-1942.3	239.97	-360.65	-1917.6	60.623	-299.71	-1924.4	80.478	-214.98	-1289.7	185.24	-105.82	-1320.4	138.38	-149.01	-1315.3	132.94	-71.614	-1367	35.856	-138.79	-1360.6	32.41	-89.232	-1864	53.818	-261.66	-1924.7	44.476	-217.43	-1925	35.619	-295.62	-2045.6	39.051	-260.07	-2026.1	22.19	-314.16
328	3.27	NaN	NaN	NaN	NaN	NaN	NaN	-1768	1289.7	-233.6	-1811.9	1146.3	-226.79	-1750	1351.3	-16.382	-1656.7	1299.9	-410.84	NaN	NaN	NaN	-1852.5	859.54	-131.43	-1805.7	876.93	-331.05	-1672.1	886.89	-152.15	-1651.7	893.31	-223.84	-1804.5	924.46	-66.712	-1719.3	932.95	-356.52	-1784.3	586.64	-75.745	NaN	NaN	NaN	-1752.4	587.93	-60.279	NaN	NaN	NaN	-1708.7	388.65	-95.762	NaN	NaN	NaN	-1834.7	612.12	-356.23	-1841.2	650.64	-364.04	-1784.6	626.79	-354.11	-1868	555.12	-389.67	-1945.7	460.61	-306.54	NaN	NaN	NaN	-1546.5	304.76	-58.17	NaN	NaN	NaN	-1576.3	339.35	-60.621	-1533.6	220.29	-35.085	-1356.7	155.3	-63.421	-1362.1	157.99	-152.69	-1932.3	309.29	-321.22	-1955.2	353.21	-305.07	-1907.1	354.65	-324.63	-1953.2	236.93	-358.65	-1919.5	60.702	-298.53	-1925.4	79.123	-213.38	-1310	190.51	-103.3	-1337.8	142.24	-146.87	-1330.4	137.61	-69.891	-1372.5	35.849	-138.16	-1366.6	32.55	-89.221	-1865.4	54.623	-261.42	-1925.1	43.63	-216.14	-1926.7	35.85	-294.81	-2046.8	38	-257.53	-2027	22.709	-312.71
329	3.28	NaN	NaN	NaN	NaN	NaN	NaN	-1784	1290.3	-235.75	-1829	1147.1	-228.5	-1764.5	1352.1	-18.739	-1673.2	1299.7	-413.44	NaN	NaN	NaN	-1868.3	859.36	-133.78	-1823.2	877.3	-333.21	-1684	888.02	-156.02	-1668.1	894.05	-226.67	-1820.5	924.67	-69.159	-1737.2	935.07	-359.04	-1802.2	586.39	-77.24	NaN	NaN	NaN	-1770.7	587.56	-61.487	NaN	NaN	NaN	-1731	387.37	-95.293	NaN	NaN	NaN	-1855.7	613.89	-358.18	-1860.6	651.77	-364.39	-1804.9	627.03	-357.63	-1889.9	557.07	-390.47	-1959	458.55	-304.92	NaN	NaN	NaN	-1566.8	305.12	-56.945	NaN	NaN	NaN	-1597	339.12	-60.083	-1553.8	220	-33.639	-1374.7	158.06	-61.063	-1380.9	160.11	-149.82	-1942.6	307.4	-319.03	-1965.9	350.48	-302.6	-1918.7	353.5	-323.33	-1961.2	234.45	-356.37	-1920.3	60.985	-297.5	-1926.3	78.006	-212.15	-1332.5	196.96	-100.37	-1355.8	147.05	-144.31	-1350.7	141.84	-66.5	-1378.4	37.855	-136.84	-1372.8	33.707	-88.546	-1866.4	55.267	-260.61	-1925.4	42.601	-215.19	-1927.2	35.928	-293.94	-2047.6	37.466	-256.97	-2027.3	22.789	-312.41
330	3.29	NaN	NaN	NaN	NaN	NaN	NaN	-1799.9	1291.1	-237.84	-1845.8	1148.1	-230.06	-1779	1353.1	-21.079	-1689.8	1299.9	-416.11	NaN	NaN	NaN	-1883.7	859.62	-135.77	-1840.4	877.49	-334.83	-1703.7	887.37	-158.25	-1682.4	896.31	-230.63	-1835.2	925.43	-71.238	-1755.6	937	-361.95	-1820.8	586.21	-78.693	NaN	NaN	NaN	-1789.4	586.98	-62.908	NaN	NaN	NaN	-1753.3	386.08	-94.824	NaN	NaN	NaN	-1870	613.65	-358.98	-1879.2	650.87	-364.09	-1824.7	627.42	-361.11	-1908.3	555.45	-389.16	-1970.6	456.01	-303.14	NaN	NaN	NaN	-1588.9	305.63	-55.26	NaN	NaN	NaN	-1619.3	339.02	-59.254	-1575.5	219.8	-32.7	-1391.9	163.44	-60.14	-1401.3	163.19	-147.27	-1950.6	306.05	-317	-1975	348.25	-300.65	-1927.4	352.62	-321.25	-1967.4	232.99	-354.31	-1921.1	61.169	-296.79	-1926.8	77.178	-211.43	-1358	203.9	-96.896	-1375.9	152.65	-141.64	-1375.8	144.49	-67.592	-1385.9	41.681	-135.99	-1380.1	35.559	-88.418	-1867	55.889	-260.15	-1925.5	41.941	-214.42	-1927.6	35.988	-293.46	-2048	37.098	-256.29	-2027.5	22.97	-311.87
331	3.3	NaN	NaN	NaN	NaN	NaN	NaN	-1815.8	1292.4	-239.91	-1862.3	1149.5	-231.51	-1793.3	1354.3	-23.309	-1706.5	1300.6	-418.87	NaN	NaN	NaN	-1898.7	860.32	-137.19	-1857.2	877.62	-336.24	-1714.4	889.04	-163.35	-1695.8	898.06	-235.79	-1848.9	926.18	-72.873	-1773.6	938.09	-364.74	-1839.9	586.36	-80.278	NaN	NaN	NaN	-1808.8	586.82	-64.064	NaN	NaN	NaN	-1775.6	384.79	-94.355	NaN	NaN	NaN	-1884.3	613.4	-359.78	-1895.4	648.95	-363.39	-1839.6	627.43	-361.9	-1922.2	552.56	-387.85	-1981	453.33	-301.4	NaN	NaN	NaN	-1612.2	306.57	-53.947	NaN	NaN	NaN	-1642.7	339.72	-58.373	-1597.9	220.82	-31.313	-1416.4	165.12	-55.309	-1423.7	166.18	-144.58	-1956.4	305.19	-315.91	-1982.3	346.68	-299.45	-1933.6	352.41	-319.55	-1971.5	232.11	-353.64	-1921.6	61.289	-296.14	-1927.2	76.737	-210.45	-1385.5	209.96	-93.516	-1398.2	157.65	-139.05	-1391.5	151.3	-62.342	-1395.1	46.405	-135.88	-1388.6	38.057	-89.696	-1867.5	56.348	-259.75	-1925.9	41.946	-213.69	-1927.7	35.755	-292.72	-2048.4	36.903	-255.69	-2027.6	23.173	-311.35
332	3.31	NaN	NaN	NaN	NaN	NaN	NaN	-1831.5	1294.2	-241.88	-1878.6	1151.5	-232.91	-1807.3	1355.8	-25.357	-1723.3	1301.7	-421.7	NaN	NaN	NaN	-1913.3	861.24	-138.28	-1873.5	877.89	-337.61	-1733.3	890.19	-165.72	-1713.9	899.79	-238.5	-1862.6	926.94	-74.203	-1792.2	939.45	-367.52	-1859.6	587.16	-81.818	NaN	NaN	NaN	-1828.9	587.06	-65.097	NaN	NaN	NaN	-1799.7	384.48	-93.65	NaN	NaN	NaN	-1898.6	613.16	-360.58	-1907.9	647.4	-363.18	-1851.7	628.47	-363.08	-1932	550.32	-387.05	-1990.3	451.42	-299.6	NaN	NaN	NaN	-1636.4	307.24	-53.796	NaN	NaN	NaN	-1666.9	340.29	-58.062	-1621.3	222.8	-29.305	-1439.7	168.24	-53.539	-1447.6	169.76	-142.62	-1960.7	304.54	-315.22	-1987.5	345.56	-298.56	-1939.2	352.46	-318.7	-1974.7	231.27	-353.74	-1922.2	61.465	-295.7	-1927.5	76.242	-209.82	-1413.3	215.07	-90.116	-1422.1	162.73	-136.93	-1418.8	153.08	-61.546	-1408.4	51.794	-135.51	-1403.5	43.202	-91.796	-1868	56.82	-259.46	-1925.7	41.213	-213.34	-1928	35.788	-292.26	-2048.6	36.737	-255.23	-2027.7	23.17	-310.9
